<?xml version="1.0" standalone="no"?>
<svg xmlns:xlink="http://www.w3.org/1999/xlink" id="wave" style="transform:rotate(0deg); transition: 0.3s" viewBox="0 0 1440 400" version="1.1" xmlns="http://www.w3.org/2000/svg"><defs><linearGradient id="sw-gradient-0" x1="0" x2="0" y1="1" y2="0"><stop stop-color="rgba(212.159, 121.054, 121.054, 1)" offset="0%"/><stop stop-color="rgba(225.819, 125.023, 166.172, 1)" offset="100%"/></linearGradient></defs><path style="transform:translate(0, 0px); opacity:1" fill="url(#sw-gradient-0)" d="M0,0L60,33.3C120,67,240,133,360,166.7C480,200,600,200,720,226.7C840,253,960,307,1080,313.3C1200,320,1320,280,1440,246.7C1560,213,1680,187,1800,173.3C1920,160,2040,160,2160,160C2280,160,2400,160,2520,160C2640,160,2760,160,2880,166.7C3000,173,3120,187,3240,160C3360,133,3480,67,3600,53.3C3720,40,3840,80,3960,133.3C4080,187,4200,253,4320,253.3C4440,253,4560,187,4680,180C4800,173,4920,227,5040,220C5160,213,5280,147,5400,146.7C5520,147,5640,213,5760,246.7C5880,280,6000,280,6120,266.7C6240,253,6360,227,6480,180C6600,133,6720,67,6840,53.3C6960,40,7080,80,7200,100C7320,120,7440,120,7560,153.3C7680,187,7800,253,7920,280C8040,307,8160,293,8280,286.7C8400,280,8520,280,8580,280L8640,280L8640,400L8580,400C8520,400,8400,400,8280,400C8160,400,8040,400,7920,400C7800,400,7680,400,7560,400C7440,400,7320,400,7200,400C7080,400,6960,400,6840,400C6720,400,6600,400,6480,400C6360,400,6240,400,6120,400C6000,400,5880,400,5760,400C5640,400,5520,400,5400,400C5280,400,5160,400,5040,400C4920,400,4800,400,4680,400C4560,400,4440,400,4320,400C4200,400,4080,400,3960,400C3840,400,3720,400,3600,400C3480,400,3360,400,3240,400C3120,400,3000,400,2880,400C2760,400,2640,400,2520,400C2400,400,2280,400,2160,400C2040,400,1920,400,1800,400C1680,400,1560,400,1440,400C1320,400,1200,400,1080,400C960,400,840,400,720,400C600,400,480,400,360,400C240,400,120,400,60,400L0,400Z"/><defs><linearGradient id="sw-gradient-1" x1="0" x2="0" y1="1" y2="0"><stop stop-color="rgba(124.115, 49.71, 187.114, 0.75)" offset="0%"/><stop stop-color="rgba(78.514, 176.14, 198.498, 1)" offset="100%"/></linearGradient></defs><path style="transform:translate(0, 50px); opacity:0.9" fill="url(#sw-gradient-1)" d="M0,160L60,180C120,200,240,240,360,233.3C480,227,600,173,720,160C840,147,960,173,1080,180C1200,187,1320,173,1440,146.7C1560,120,1680,80,1800,113.3C1920,147,2040,253,2160,280C2280,307,2400,253,2520,200C2640,147,2760,93,2880,66.7C3000,40,3120,40,3240,66.7C3360,93,3480,147,3600,173.3C3720,200,3840,200,3960,200C4080,200,4200,200,4320,180C4440,160,4560,120,4680,146.7C4800,173,4920,267,5040,280C5160,293,5280,227,5400,180C5520,133,5640,107,5760,113.3C5880,120,6000,160,6120,160C6240,160,6360,120,6480,133.3C6600,147,6720,213,6840,253.3C6960,293,7080,307,7200,286.7C7320,267,7440,213,7560,220C7680,227,7800,293,7920,280C8040,267,8160,173,8280,160C8400,147,8520,213,8580,246.7L8640,280L8640,400L8580,400C8520,400,8400,400,8280,400C8160,400,8040,400,7920,400C7800,400,7680,400,7560,400C7440,400,7320,400,7200,400C7080,400,6960,400,6840,400C6720,400,6600,400,6480,400C6360,400,6240,400,6120,400C6000,400,5880,400,5760,400C5640,400,5520,400,5400,400C5280,400,5160,400,5040,400C4920,400,4800,400,4680,400C4560,400,4440,400,4320,400C4200,400,4080,400,3960,400C3840,400,3720,400,3600,400C3480,400,3360,400,3240,400C3120,400,3000,400,2880,400C2760,400,2640,400,2520,400C2400,400,2280,400,2160,400C2040,400,1920,400,1800,400C1680,400,1560,400,1440,400C1320,400,1200,400,1080,400C960,400,840,400,720,400C600,400,480,400,360,400C240,400,120,400,60,400L0,400Z"/></svg>